<?xml version="1.0" encoding="UTF-8" standalone="no"?>
<svg
   xmlns:dc="http://purl.org/dc/elements/1.1/"
   xmlns:cc="http://creativecommons.org/ns#"
   xmlns:rdf="http://www.w3.org/1999/02/22-rdf-syntax-ns#"
   xmlns:svg="http://www.w3.org/2000/svg"
   xmlns="http://www.w3.org/2000/svg"
   xmlns:sodipodi="http://sodipodi.sourceforge.net/DTD/sodipodi-0.dtd"
   xmlns:inkscape="http://www.inkscape.org/namespaces/inkscape"
   version="1.1"
   id="svg2"
   width="30"
   height="16"
   viewBox="0 0 30 16"
   sodipodi:docname="PlateNumber.svg"
   inkscape:version="1.0.1 (3bc2e813f5, 2020-09-07)">
  <metadata
     id="metadata8">
    <rdf:RDF>
      <cc:Work
         rdf:about="">
        <dc:format>image/svg+xml</dc:format>
        <dc:type
           rdf:resource="http://purl.org/dc/dcmitype/StillImage" />
        <dc:title></dc:title>
      </cc:Work>
    </rdf:RDF>
  </metadata>
  <defs
     id="defs6" />
  <sodipodi:namedview
     pagecolor="#ffffff"
     bordercolor="#666666"
     borderopacity="1"
     objecttolerance="10"
     gridtolerance="10"
     guidetolerance="10"
     inkscape:pageopacity="0"
     inkscape:pageshadow="2"
     inkscape:window-width="1280"
     inkscape:window-height="961"
     id="namedview4"
     showgrid="false"
     inkscape:zoom="17.75"
     inkscape:cx="21.012967"
     inkscape:cy="7.0868641"
     inkscape:window-x="-8"
     inkscape:window-y="-8"
     inkscape:window-maximized="1"
     inkscape:current-layer="g10" />
  <g
     inkscape:groupmode="layer"
     inkscape:label="Image"
     id="g10">
    <g
       id="g81">
      <g
         id="g75">
        <path
           style="fill:#000000;fill-opacity:1;stroke-width:0.0627609"
           d="m 2.3025587,15.367989 c -0.673054,-0.243332 -1.229324,-0.745511 -1.52564498,-1.37729 l -0.167145,-0.356368 V 7.9544684 2.2746074 l 0.169226,-0.361073 C 1.0140507,1.4120024 1.4953857,0.92350339 2.0079867,0.66624945 l 0.421848,-0.211708 H 14.636831 26.843825 l 0.412569,0.201897 c 0.503536,0.24641194 1.001539,0.75198695 1.238272,1.25709595 l 0.169226,0.361073 v 5.679861 5.6798626 l -0.169226,0.361072 c -0.236733,0.50511 -0.734736,1.010684 -1.238272,1.257097 l -0.412569,0.201896 -12.112853,0.01384 C 3.1608977,15.481456 2.6039767,15.476936 2.3025587,15.367989 Z M 26.843825,14.314758 c 0.293751,-0.158509 0.535145,-0.404363 0.698896,-0.711808 0.11156,-0.209456 0.116996,-0.471923 0.116996,-5.6484816 0,-5.176557 -0.0054,-5.439024 -0.116996,-5.64848 -0.163751,-0.307445 -0.405145,-0.553299 -0.698896,-0.711808 L 26.592781,1.4587154 H 14.636831 2.6808787 l -0.251044,0.135465 c -0.293751,0.158509 -0.535145,0.404363 -0.698895,0.711808 -0.11156,0.209456 -0.116997,0.471923 -0.116997,5.64848 0,5.1765586 0.0054,5.4390256 0.116997,5.6484816 0.228964,0.429886 0.579724,0.714032 1.0127,0.820373 0.103555,0.02544 5.511976,0.04189 12.0187133,0.03657 l 11.830428,-0.0097 z M 2.7407867,13.323378 c -0.148396,-0.148394 -0.15405,-0.185253 -0.15405,-1.004174 V 11.469079 H 14.636831 26.686924 v 0.850125 c 0,0.818921 -0.0057,0.85578 -0.15405,1.004174 l -0.154049,0.15405 H 14.636831 2.8948357 Z M 9.8284265,12.904439 C 10.049301,12.803801 10.154494,12.524485 10.058656,12.293113 9.9534295,12.039072 9.7541525,11.971167 9.1138705,11.971167 c -0.6402818,0 -0.8395588,0.0679 -0.9447848,0.321946 -0.09249,0.223281 0.007,0.50859 0.211812,0.607622 0.184829,0.08936 1.2535378,0.09209 1.4475288,0.0037 z m 11.0459185,0 c 0.220875,-0.100638 0.326068,-0.379954 0.23023,-0.611326 -0.105227,-0.254041 -0.304504,-0.321946 -0.944786,-0.321946 -0.640281,0 -0.839559,0.0679 -0.944785,0.321946 -0.09249,0.223281 0.007,0.50859 0.211812,0.607622 0.184829,0.08936 1.253538,0.09209 1.447529,0.0037 z M 2.5867367,7.9544684 V 5.4440334 H 14.636831 26.686924 v 2.510435 2.5104366 H 14.636831 2.5867367 Z m 4.320657,1.817493 c 0.389125,-0.171481 0.848766,-0.633237 1.022509,-1.027214 0.195918,-0.444259 0.195918,-1.136298 0,-1.580557 -0.176303,-0.399783 -0.633439,-0.854909 -1.044044,-1.039456 -0.435781,-0.195862 -1.129159,-0.195343 -1.57479,0.0012 -0.399782,0.176304 -0.854909,0.633439 -1.039456,1.044044 -0.196512,0.437228 -0.196478,1.131939 6.3e-5,1.569023 0.249742,0.555352 0.792313,1.013223 1.373666,1.1592235 0.3335,0.08375 0.918243,0.02526 1.262037,-0.1262425 z m -1.313049,-0.956024 c -0.667776,-0.450014 -0.667776,-1.272923 0,-1.722937 0.828759,-0.558501 1.926972,0.539712 1.368472,1.368471 -0.219204,0.325276 -0.517054,0.497172 -0.861469,0.497172 -0.203165,0 -0.361284,-0.04451 -0.507003,-0.142706 z m 5.8318343,0.956024 c 0.389124,-0.171481 0.848766,-0.633237 1.022509,-1.027214 0.195918,-0.444259 0.195918,-1.136298 0,-1.580557 -0.176304,-0.399783 -0.633439,-0.854909 -1.044044,-1.039456 -0.435782,-0.195862 -1.12916,-0.195343 -1.5747895,0.0012 -0.399783,0.176304 -0.8549098,0.633439 -1.0394568,1.044044 -0.196512,0.437228 -0.196478,1.131939 6.3e-5,1.569023 0.249742,0.555352 0.7923128,1.013223 1.3736653,1.1592235 0.333501,0.08375 0.918244,0.02526 1.262038,-0.1262425 z M 10.11313,8.8159374 C 9.7878535,8.5967344 9.6159575,8.2988834 9.6159575,7.9544684 c 0,-0.766105 0.8953205,-1.276495 1.5111775,-0.861468 0.667776,0.450014 0.667776,1.272923 0,1.722937 -0.145719,0.0982 -0.303838,0.142706 -0.507002,0.142706 -0.203164,0 -0.361284,-0.04451 -0.507003,-0.142706 z m 9.346444,0.956024 c 0.389125,-0.171481 0.848766,-0.633237 1.022509,-1.027214 0.195919,-0.444259 0.195919,-1.136298 0,-1.580557 -0.176304,-0.399783 -0.633439,-0.854909 -1.044043,-1.039456 -0.435783,-0.195862 -1.129161,-0.195343 -1.57479,0.0012 -0.399783,0.176304 -0.854909,0.633439 -1.039456,1.044044 -0.196513,0.437228 -0.196479,1.131939 6.3e-5,1.569023 0.249742,0.555352 0.792312,1.013223 1.373664,1.1592235 0.333501,0.08375 0.918243,0.02526 1.262038,-0.1262425 z m -1.313049,-0.956024 c -0.325275,-0.219203 -0.497171,-0.517054 -0.497171,-0.861469 0,-0.203164 0.04451,-0.361283 0.142705,-0.507002 0.450014,-0.667776 1.272924,-0.667776 1.722937,0 0.415027,0.615857 -0.09536,1.511177 -0.861468,1.511177 -0.203164,0 -0.361284,-0.04451 -0.507003,-0.142706 z m 5.831834,0.956024 c 0.389125,-0.171481 0.848765,-0.633237 1.022509,-1.027214 0.195918,-0.444259 0.195918,-1.136298 0,-1.580557 -0.176303,-0.399783 -0.633439,-0.854909 -1.044044,-1.039456 -0.435781,-0.195862 -1.129159,-0.195343 -1.574789,0.0012 -0.399783,0.176304 -0.854909,0.633439 -1.039457,1.044044 -0.196512,0.437228 -0.196477,1.131939 6.3e-5,1.569023 0.249742,0.555352 0.792313,1.013223 1.373666,1.1592235 0.3335,0.08375 0.918243,0.02526 1.262037,-0.1262425 z M 22.66531,8.8159374 c -0.325276,-0.219203 -0.497172,-0.517054 -0.497172,-0.861469 0,-0.203164 0.04451,-0.361283 0.142707,-0.507002 0.450013,-0.667776 1.272922,-0.667776 1.722937,0 0.415025,0.615857 -0.09536,1.511177 -0.861469,1.511177 -0.203165,0 -0.361284,-0.04451 -0.507003,-0.142706 z m -7.024305,-0.861469 v -0.502087 h -1.004174 -1.004175 v 0.502087 0.502087 h 1.004175 1.004174 z M 2.5867367,3.5897334 c 0,-0.818921 0.0057,-0.855779 0.15405,-1.004174 l 0.154049,-0.15405 H 14.636831 26.378825 l 0.154049,0.15405 c 0.148394,0.148395 0.15405,0.185253 0.15405,1.004174 v 0.850125 H 14.636831 2.5867367 Z m 7.2416898,0.277136 c 0.3485625,-0.158816 0.3485625,-0.703554 0,-0.86237 -0.08559,-0.039 -0.407138,-0.0709 -0.714556,-0.0709 -0.6402818,0 -0.8395588,0.06791 -0.9447848,0.321945 -0.09249,0.223281 0.007,0.50859 0.211812,0.607623 0.184829,0.08936 1.2535378,0.09209 1.4475288,0.0037 z m 11.0459185,0 c 0.348562,-0.158816 0.348562,-0.703554 0,-0.86237 -0.2003,-0.09126 -1.226883,-0.09214 -1.426433,-0.0012 -0.153898,0.07012 -0.292297,0.293401 -0.292297,0.471567 0,0.05281 0.08255,0.17857 0.183455,0.27947 0.1771,0.177099 0.204178,0.183455 0.781558,0.183455 0.328957,0 0.66813,-0.03191 0.753717,-0.0709 z"
           id="path28" />
        <rect
           style="fill:none;stroke:#000000;stroke-width:0.943897;stroke-linecap:round;paint-order:fill markers stroke"
           id="rect37"
           width="27.215471"
           height="14.09135"
           x="1.057178"
           y="0.89181828"
           ry="1.7988119" />
        <rect
           style="fill:none;stroke:#000000;stroke-width:0.491175;stroke-linecap:round;paint-order:fill markers stroke"
           id="rect53"
           width="25.654831"
           height="13.442824"
           x="1.8094149"
           y="1.2360865"
           ry="1.7160252" />
      </g>
    </g>
  </g>
</svg>
